# xmcd
#
# Track frame offsets: 
#        150
#        12429
#        24099
#        36357
#        51681
#        66042
#        87112
#        106301
#        121434
#        135339
#        150489
#        166017
#
# Disc length: 2423 seconds
#
# Revision: 0
# Processed by: cddbd v1.5.2PL0 Copyright (c) Steve Scherf et al.
# Submitted via: ExactAudioCopyFreeDBPlugin 1.0
#
DISCID=8f09750c
DTITLE=Quinn Sullivan - Cyclone
DYEAR=2011
DGENRE=Blues
TTITLE0=My Sweet Guitar
TTITLE1=Ten Years Down the Road
TTITLE2=Good to See You
TTITLE3=Crazy Rhythm
TTITLE4=Cyclone
TTITLE5=Buddy's Blues
TTITLE6=Summer of Love
TTITLE7=Rock and Roll On It
TTITLE8=Weekend Uniform
TTITLE9=Blues Child
TTITLE10=Me and My Guitar
TTITLE11=Peace and Harmony
EXTD=
EXTT0=
EXTT1=
EXTT2=
EXTT3=
EXTT4=
EXTT5=
EXTT6=
EXTT7=
EXTT8=
EXTT9=
EXTT10=
EXTT11=
PLAYORDER=
